<svg xmlns="http://www.w3.org/2000/svg" viewBox="0 0 466.482 466.482" width="512" height="512"><g fill="#a2a2a2"><path d="M233.824 148.642L126.673 119.94c-4.365-1.187-8.795 1.422-9.958 5.747-1.162 4.333 1.414 8.795 5.747 9.957l107.151 28.702a8.228 8.228 0 0 0 2.105.276c3.593 0 6.877-2.398 7.844-6.023a8.103 8.103 0 0 0-5.738-9.957zM257.795 160.591c.301-.423.553-.886.935-1.244-.374.366-.626.821-.935 1.244zM256.933 161.867c-.187.415-.236.878-.35 1.333.114-.447.163-.91.35-1.333zM261.42 157.665c-.585.219-1.065.585-1.569.927.504-.334.984-.7 1.569-.927z"/><path d="M256.616 398.588a8.126 8.126 0 0 1 5.072-10.315l10.754-3.666V170.996l-5.462 1.894a8.107 8.107 0 0 1-10.34-5.015c-.333-.967-.431-1.951-.398-2.918 0 .089-.049.171-.049.26V385.51L86.729 342.265v-220.91l-3.967 1.301-12.29 11.055v214.863c0 3.715 2.52 6.95 6.121 7.877l185.722 47.39a8.078 8.078 0 0 0 2.008.252c-3.399.006-6.561-2.124-7.707-5.505zM264.306 404.099c.902 0 1.788-.146 2.634-.439h-.008a8.013 8.013 0 0 1-2.626.439zM74.032 108.918c.553-.382 1.105-.772 1.74-1.008-.651.235-1.187.618-1.74 1.008zM414.823 111.429c-.098-.171-.268-.268-.374-.423.797 1.187 1.357 2.544 1.439 4.048a8.126 8.126 0 0 1-5.454 8.096l-6.373 2.211 42.374 74.003-116.19 40.245-32.474-46.829c-2.561-3.674-7.633-4.609-11.315-2.04-3.69 2.552-4.601 7.625-2.048 11.315l35.985 51.893a8.156 8.156 0 0 0 6.682 3.495c.886 0 1.788-.138 2.658-.447l65.411-22.662v-11.421c0-4.495 3.642-8.129 8.129-8.129s8.129 3.633 8.129 8.129v5.788l49.617-17.184a8.125 8.125 0 0 0 4.95-4.836 8.148 8.148 0 0 0-.561-6.893l-50.585-88.359zM412.384 108.845c.276.195.504.431.748.65-.252-.22-.48-.464-.748-.65zM409.775 107.617c.244.065.455.203.691.285-.244-.082-.447-.22-.691-.285z"/><path d="M395.151 342.761l-122.717 41.846v11.356a8.126 8.126 0 0 1-5.495 7.69l138.958-47.39a8.129 8.129 0 0 0 5.503-7.69V228.7l-16.257 5.633V342.76h.008z"/><path d="M272.434 395.97v-11.356l-10.754 3.666a8.126 8.126 0 0 0-5.072 10.315 8.13 8.13 0 0 0 7.69 5.511c.87 0 1.756-.138 2.626-.439h.008a7.929 7.929 0 0 0 2.349-1.268 8.159 8.159 0 0 0 3.153-6.429zM403.28 214.784a8.126 8.126 0 0 0-8.129 8.129v11.421l16.257-5.633v-5.788a8.126 8.126 0 0 0-8.128-8.129zM413.132 109.503c.488.439.935.935 1.317 1.504a7.77 7.77 0 0 0-1.317-1.504zM74.032 108.918c-.285.195-.626.284-.878.512L2.696 172.808a8.12 8.12 0 0 0-1.52 10.25 8.125 8.125 0 0 0 6.958 3.918c.943 0 1.902-.171 2.837-.504l43.09-16.046a8.122 8.122 0 0 0 4.78-10.453c-1.569-4.219-6.251-6.332-10.453-4.788l-3.048 1.138 25.134-22.606v-18.249c-.019-2.762 1.453-5.087 3.558-6.55zM410.466 107.902c.675.236 1.325.528 1.918.943-.585-.407-1.236-.7-1.918-.943zM86.713 115.469v5.893l129.293-42.431 162.571 38.058-116.937 40.554c-.081.024-.138.098-.219.13.902-.341 1.861-.577 2.878-.577a8.126 8.126 0 0 1 8.129 8.129v5.779l131.626-45.642-3.349-5.844c-2.227-3.894-.878-8.868 3.016-11.095 1.91-1.081 4.072-1.292 6.048-.797-.057-.016-.098-.049-.154-.065l-192.13-44.976a8.3 8.3 0 0 0-4.389.187L76.048 107.747c-.106.033-.179.122-.285.163.886-.333 1.821-.569 2.821-.569a8.121 8.121 0 0 1 8.129 8.128z"/><path d="M258.73 159.347c.325-.309.748-.504 1.122-.756-.375.252-.797.447-1.122.756zM256.226 164.956c.016-.618.203-1.179.358-1.756-.155.586-.334 1.146-.358 1.756zM257.795 160.591c-.301.423-.65.805-.862 1.276.22-.471.569-.853.862-1.276zM86.713 121.354v-5.893a8.127 8.127 0 0 0-8.129-8.129c-1 0-1.935.236-2.821.569-.634.236-1.187.626-1.74 1.008-2.105 1.471-3.568 3.788-3.568 6.552v18.249l12.29-11.055 3.968-1.301z"/><path d="M264.306 157.088c-1.024 0-1.983.236-2.878.577-.585.228-1.073.585-1.569.927-.374.252-.788.447-1.122.756-.382.366-.634.821-.935 1.244s-.642.805-.862 1.276c-.187.423-.236.886-.35 1.333-.154.577-.333 1.138-.358 1.756-.033.967.057 1.951.398 2.918a8.112 8.112 0 0 0 10.34 5.015l5.462-1.894v-5.779a8.123 8.123 0 0 0-8.126-8.129zM403.727 108.414c-3.894 2.227-5.243 7.202-3.016 11.096l3.349 5.844 6.373-2.211a8.133 8.133 0 0 0 5.454-8.096c-.081-1.504-.642-2.853-1.439-4.048a7.803 7.803 0 0 0-1.317-1.504c-.244-.228-.48-.463-.748-.65a8.122 8.122 0 0 0-1.918-.943c-.236-.081-.439-.219-.691-.285-1.975-.504-4.137-.293-6.047.797z"/></g></svg>