<svg xmlns="http://www.w3.org/2000/svg" width="496.786" height="496.627" viewBox="0.987 0.986 496.786 496.627"><path fill="#507FA7" d="M.987.986h496.786v496.627H.987z"/><path fill="#FFF" d="M185.148 54.302h128.506c1.218.215 2.428.525 3.656.631 12.437 1.083 25.071 1.089 37.28 3.377 44.581 8.351 73.185 34.442 84.514 78.734 4.901 19.163 4.948 38.839 5.126 58.385a4904.82 4904.82 0 0 1-.283 114.884c-.213 14.896-.856 30.013-3.574 44.606-8.268 44.42-34.478 72.877-78.603 84.166-19.04 4.869-38.586 4.987-57.999 5.119-40.609.276-81.225-.127-121.837-.423-15.346-.112-30.666-1.032-45.633-4.832-32.594-8.272-56.516-27.145-70.293-58.133-7.775-17.486-10.038-36.115-10.808-55.018-.166-4.059-.58-8.106-.88-12.159V185.131c.215-1.218.586-2.431.622-3.653.449-15.079 1.128-30.131 4.824-44.857 8.336-33.222 27.602-57.393 59.286-71.094 17.181-7.429 35.438-9.588 53.939-10.345 4.058-.165 8.105-.58 12.157-.88zm64.145 355.281l.006-.602c16.25 0 32.508.316 48.748-.091 15.318-.383 30.676-.96 45.909-2.504 14.71-1.489 28.238-6.676 39.644-16.649 15.688-13.72 22.323-31.77 23.545-51.73 1.418-23.144 1.746-46.366 2.033-69.56.279-22.565.184-45.145-.272-67.708-.31-15.317-.955-30.675-2.501-45.908-1.492-14.708-6.671-28.238-16.646-39.643-13.722-15.689-31.771-22.303-51.731-23.549-22.627-1.413-45.333-1.755-68.011-2.028-23.212-.28-46.437-.183-69.646.271-15.189.298-30.418.957-45.522 2.498-14.708 1.502-28.238 6.673-39.643 16.647-15.689 13.722-22.323 31.771-23.546 51.731-1.418 23.142-1.746 46.364-2.033 69.56-.278 22.567-.284 45.15.3 67.709.437 16.849.76 33.862 3.343 50.459 4.413 28.356 20.783 47.604 48.934 55.256 9.24 2.511 19.01 3.81 28.593 4.17 26.149.984 52.328 1.17 78.496 1.671z"/><path fill="#FFF" d="M349.656 249.557c-.047 55.449-45.028 100.188-100.622 100.083-55.237-.105-99.951-45.06-99.888-100.428.062-55.464 45.036-100.199 100.621-100.082 55.25.115 99.936 45.042 99.889 100.427zm-35.357-.029c.005-35.557-29.004-65.002-64.077-65.042-36.382-.042-65.707 28.766-65.718 64.56-.012 35.991 28.965 65.229 64.656 65.234 35.944.011 65.135-29.009 65.139-64.752zM353.61 121.779c13.04.037 23.464 10.601 23.396 23.707-.067 12.987-10.774 23.484-23.806 23.337-12.789-.143-23.257-10.737-23.263-23.547-.007-12.966 10.639-23.534 23.673-23.497z"/></svg>