<svg fill="#fff" xmlns="http://www.w3.org/2000/svg" width="23" height="19" viewBox="0 0 58.535 49.293"><path d="M3.395 6.918h51.746c1.875 0 3.395-1.547 3.395-3.457S57.016 0 55.141 0H3.395C1.52 0 0 1.551 0 3.461c0 1.914 1.52 3.457 3.395 3.457zm51.746 14.27H3.395C1.52 21.188 0 22.738 0 24.645c0 1.917 1.52 3.46 3.395 3.46h51.746c1.875 0 3.395-1.547 3.395-3.46-.001-1.907-1.52-3.457-3.395-3.457zm0 21.183H3.395C1.52 42.371 0 43.926 0 45.832c0 1.914 1.52 3.461 3.395 3.461h51.746c1.875 0 3.395-1.547 3.395-3.461-.001-1.906-1.52-3.461-3.395-3.461zm0 0"/></svg>