<svg xmlns="http://www.w3.org/2000/svg" viewBox="0 0 512.001 512.001"><path d="M160.235 276.571l-144.5-159.983C6.352 122.166.001 132.299.001 144.002v256.005c0 17.672 14.328 31.994 32 31.994h268.625l-58.867-65.17c-44.766-6.676-79.352-44.169-81.524-90.26zM480.001 112.001h-112l-23.156-46.313a32.002 32.002 0 0 0-28.625-17.687H195.782a32.003 32.003 0 0 0-28.625 17.688l-10.836 21.672-68.539-76.767C75.985-2.539 55.735-3.61 42.594 8.211c-13.141 11.828-14.203 32.063-2.375 45.196l399.992 448c6.313 7.024 15.031 10.594 23.797 10.594a31.877 31.877 0 0 0 21.391-8.211c13.141-11.828 14.203-32.067 2.375-45.2L464.04 432h15.961c17.672 0 32-14.321 32-31.994V144.002c0-17.672-14.329-32.001-32-32.001zM237.196 177.94c6.086-1.219 12.359-1.938 18.805-1.938 53.016 0 96 42.981 96 96.002 0 10.223-1.758 19.996-4.727 29.227L237.196 177.94z"/></svg>